<?xml version="1.0" standalone="no"?>
<!DOCTYPE svg PUBLIC "-//W3C//DTD SVG 20010904//EN"
 "http://www.w3.org/TR/2001/REC-SVG-20010904/DTD/svg10.dtd">
<svg version="1.0" xmlns="http://www.w3.org/2000/svg"
 width="260.000000pt" height="260.000000pt" viewBox="0 0 260.000000 260.000000"
 preserveAspectRatio="xMidYMid meet">
<metadata>
Created by potrace 1.14, written by Peter Selinger 2001-2017
</metadata>
<g transform="translate(0.000000,260.000000) scale(0.100000,-0.100000)"
fill="#000000" stroke="none">
<path d="M1229 2248 c15 -42 59 -180 66 -208 1 -3 4 -12 7 -20 4 -8 8 -24 11
-35 2 -11 37 -121 76 -245 73 -227 166 -520 203 -640 11 -36 21 -69 22 -75 1
-6 -77 -10 -211 -10 -117 -1 -214 -3 -216 -6 -6 -6 -137 -400 -137 -410 0 -5
155 -9 344 -9 l344 0 46 -145 47 -145 234 0 234 0 -9 28 c-4 15 -65 196 -135
402 -70 206 -137 407 -150 445 -96 287 -277 823 -282 835 -3 8 -7 17 -7 20 -1
3 -21 65 -46 138 l-44 132 -208 0 -208 0 19 -52z"/>
<path d="M457 1012 c-9 -2 -17 -4 -17 -5 0 -1 -32 -94 -70 -207 -39 -112 -70
-206 -70 -207 0 -2 64 -2 142 -1 l141 3 68 204 c38 113 66 207 64 210 -6 5
-231 8 -258 3z"/>
<path d="M575 573 c-4 -10 -27 -75 -50 -146 l-44 -127 236 2 236 3 43 135 c24
74 44 138 44 143 0 4 -103 7 -229 7 -209 0 -229 -2 -236 -17z"/>
</g>
</svg>
